
<global>
amp_veltrack=0
ampeg_release=0.50
</global>

<group>
group_label=PP
lpc_hicc1=42
lpc_locc1=0

<region>
hikey=a#3
hivel=127
lokey=a3
loop_end=261722
loop_mode=loop_continuous
loop_start=85077
loop_xfade=21404
lovel=1
pitch_keycenter=a#3
sample=Cor_nonvib_PP_A#3.opus
</region>

<region>
hikey=a#4
hivel=127
lokey=a4
loop_end=269670
loop_mode=loop_continuous
loop_start=87661
loop_xfade=22054
lovel=1
pitch_keycenter=a#4
sample=Cor_nonvib_PP_A#4.opus
</region>

<region>
hikey=c4
hivel=127
lokey=b3
loop_end=249785
loop_mode=loop_continuous
loop_start=81197
loop_xfade=20428
lovel=1
pitch_keycenter=c4
sample=Cor_nonvib_PP_C4.opus
</region>

<region>
hikey=c5
hivel=127
lokey=b4
loop_end=255980
loop_mode=loop_continuous
loop_start=83210
loop_xfade=20935
lovel=1
pitch_keycenter=c5
sample=Cor_nonvib_PP_C5.opus
</region>

<region>
hikey=d4
hivel=127
lokey=c#4
loop_end=266265
loop_mode=loop_continuous
loop_start=86554
loop_xfade=21776
lovel=1
pitch_keycenter=d4
sample=Cor_nonvib_PP_D4.opus
</region>

<region>
hikey=d5
hivel=127
lokey=c#5
loop_end=257571
loop_mode=loop_continuous
loop_start=83728
loop_xfade=21065
lovel=1
pitch_keycenter=d5
sample=Cor_nonvib_PP_D5.opus
</region>

<region>
hivel=127
key=e3
loop_end=264351
loop_mode=loop_continuous
loop_start=85931
loop_xfade=21619
lovel=1
sample=Cor_nonvib_PP_E3.opus
</region>

<region>
hikey=e4
hivel=127
lokey=d#4
loop_end=251822
loop_mode=loop_continuous
loop_start=81859
loop_xfade=20594
lovel=1
pitch_keycenter=e4
sample=Cor_nonvib_PP_E4.opus
</region>

<region>
hikey=e5
hivel=127
lokey=d#5
loop_end=252885
loop_mode=loop_continuous
loop_start=82204
loop_xfade=20681
lovel=1
pitch_keycenter=e5
sample=Cor_nonvib_PP_E5.opus
</region>

<region>
hikey=f#3
hivel=127
lokey=f3
loop_end=227651
loop_mode=loop_continuous
loop_start=74001
loop_xfade=18618
lovel=1
pitch_keycenter=f#3
sample=Cor_nonvib_PP_F#3.opus
</region>

<region>
hikey=f#4
hivel=127
lokey=f4
loop_end=256732
loop_mode=loop_continuous
loop_start=83455
loop_xfade=20996
lovel=1
pitch_keycenter=f#4
sample=Cor_nonvib_PP_F#4.opus
</region>

<region>
hikey=D6
hivel=127
lokey=f5
loop_end=259993
loop_mode=loop_continuous
loop_start=84515
loop_xfade=21263
lovel=1
pitch_keycenter=F#5
sample=Cor_nonvib_PP_F#5.opus
</region>

<region>
hikey=g#3
hivel=127
lokey=g3
loop_end=253285
loop_mode=loop_continuous
loop_start=82334
loop_xfade=20714
lovel=1
pitch_keycenter=g#3
sample=Cor_nonvib_PP_G#3.opus
</region>

<region>
hikey=g#4
hivel=127
lokey=g4
loop_end=256420
loop_mode=loop_continuous
loop_start=83353
loop_xfade=20971
lovel=1
pitch_keycenter=g#4
sample=Cor_nonvib_PP_G#4.opus
</region>
</group>

<group>
group_label=MF
lpc_hicc1=84
lpc_locc1=43
volume=-6.0

<region>
hikey=a#3
hivel=127
lokey=a3
loop_end=263816
loop_mode=loop_continuous
loop_start=85758
loop_xfade=21575
lovel=1
pitch_keycenter=a#3
sample=Cor_nonvib_MF_A#3.opus
</region>

<region>
hikey=a#4
hivel=127
lokey=a4
loop_end=246198
loop_mode=loop_continuous
loop_start=80031
loop_xfade=20134
lovel=1
pitch_keycenter=a#4
sample=Cor_nonvib_MF_A#4.opus
</region>

<region>
hikey=c4
hivel=127
lokey=b3
loop_end=256820
loop_mode=loop_continuous
loop_start=83483
loop_xfade=21003
lovel=1
pitch_keycenter=c4
sample=Cor_nonvib_MF_C4.opus
</region>

<region>
hikey=c5
hivel=127
lokey=b4
loop_end=257181
loop_mode=loop_continuous
loop_start=83601
loop_xfade=21033
lovel=1
pitch_keycenter=c5
sample=Cor_nonvib_MF_C5.opus
</region>

<region>
hikey=d4
hivel=127
lokey=c#4
loop_end=263538
loop_mode=loop_continuous
loop_start=85667
loop_xfade=21553
lovel=1
pitch_keycenter=d4
sample=Cor_nonvib_MF_D4.opus
</region>

<region>
hikey=d5
hivel=127
lokey=c#5
loop_end=249500
loop_mode=loop_continuous
loop_start=81104
loop_xfade=20405
lovel=1
pitch_keycenter=d5
sample=Cor_nonvib_MF_D5.opus
</region>

<region>
hivel=127
key=e3
loop_end=270622
loop_mode=loop_continuous
loop_start=87970
loop_xfade=22132
lovel=1
sample=Cor_nonvib_MF_E3.opus
</region>

<region>
hikey=e4
hivel=127
lokey=d#4
loop_end=253903
loop_mode=loop_continuous
loop_start=82535
loop_xfade=20765
lovel=1
pitch_keycenter=e4
sample=Cor_nonvib_MF_E4.opus
</region>

<region>
hikey=e5
hivel=127
lokey=d#5
loop_end=248382
loop_mode=loop_continuous
loop_start=80741
loop_xfade=20313
lovel=1
pitch_keycenter=e5
sample=Cor_nonvib_MF_E5.opus
</region>

<region>
hikey=f#3
hivel=127
lokey=f3
loop_end=257601
loop_mode=loop_continuous
loop_start=83737
loop_xfade=21067
lovel=1
pitch_keycenter=f#3
sample=Cor_nonvib_MF_F#3.opus
</region>

<region>
hikey=f#4
hivel=127
lokey=f4
loop_end=261052
loop_mode=loop_continuous
loop_start=84859
loop_xfade=21349
lovel=1
pitch_keycenter=f#4
sample=Cor_nonvib_MF_F#4.opus
</region>

<region>
hikey=D6
hivel=127
lokey=f5
loop_end=258058
loop_mode=loop_continuous
loop_start=83886
loop_xfade=21104
lovel=1
pitch_keycenter=F#5
sample=Cor_nonvib_MF_F#5.opus
</region>

<region>
hikey=g#3
hivel=127
lokey=g3
loop_end=264960
loop_mode=loop_continuous
loop_start=86130
loop_xfade=21669
lovel=1
pitch_keycenter=g#3
sample=Cor_nonvib_MF_G#3.opus
</region>

<region>
hikey=g#4
hivel=127
lokey=g4
loop_end=251503
loop_mode=loop_continuous
loop_start=81755
loop_xfade=20568
lovel=1
pitch_keycenter=g#4
sample=Cor_nonvib_MF_G#4.opus
</region>
</group>

<group>
group_label=FF
lpc_hicc1=127
lpc_locc1=85

<region>
hikey=a#3
hivel=127
lokey=a3
loop_end=271482
loop_mode=loop_continuous
loop_start=88249
loop_xfade=22202
lovel=1
pitch_keycenter=a#3
sample=Cor_nonvib_FF_A#3.opus
</region>

<region>
hikey=a#4
hivel=127
lokey=a4
loop_end=253655
loop_mode=loop_continuous
loop_start=82455
loop_xfade=20744
lovel=1
pitch_keycenter=a#4
sample=Cor_nonvib_FF_A#4.opus
</region>

<region>
hikey=c4
hivel=127
lokey=b3
loop_end=267167
loop_mode=loop_continuous
loop_start=86847
loop_xfade=21849
lovel=1
pitch_keycenter=c4
sample=Cor_nonvib_FF_C4.opus
</region>

<region>
hikey=c5
hivel=127
lokey=b4
loop_end=273445
loop_mode=loop_continuous
loop_start=88888
loop_xfade=22363
lovel=1
pitch_keycenter=c5
sample=Cor_nonvib_FF_C5.opus
</region>

<region>
hikey=d4
hivel=127
lokey=c#4
loop_end=262898
loop_mode=loop_continuous
loop_start=85459
loop_xfade=21500
lovel=1
pitch_keycenter=d4
sample=Cor_nonvib_FF_D4.opus
</region>

<region>
hikey=d5
hivel=127
lokey=c#5
loop_end=260099
loop_mode=loop_continuous
loop_start=84549
loop_xfade=21271
lovel=1
pitch_keycenter=d5
sample=Cor_nonvib_FF_D5.opus
</region>

<region>
hivel=127
key=e3
loop_end=271266
loop_mode=loop_continuous
loop_start=88179
loop_xfade=22185
lovel=1
sample=Cor_nonvib_FF_E3.opus
</region>

<region>
hikey=e4
hivel=127
lokey=d#4
loop_end=260345
loop_mode=loop_continuous
loop_start=84629
loop_xfade=21292
lovel=1
pitch_keycenter=e4
sample=Cor_nonvib_FF_E4.opus
</region>

<region>
hikey=e5
hivel=127
lokey=d#5
loop_end=249684
loop_mode=loop_continuous
loop_start=81164
loop_xfade=20420
lovel=1
pitch_keycenter=e5
sample=Cor_nonvib_FF_E5.opus
</region>

<region>
hikey=f#3
hivel=127
lokey=f3
loop_end=263309
loop_mode=loop_continuous
loop_start=85593
loop_xfade=21534
lovel=1
pitch_keycenter=f#3
sample=Cor_nonvib_FF_F#3.opus
</region>

<region>
hikey=f#4
hivel=127
lokey=f4
loop_end=254949
loop_mode=loop_continuous
loop_start=82875
loop_xfade=20850
lovel=1
pitch_keycenter=f#4
sample=Cor_nonvib_FF_F#4.opus
</region>

<region>
hikey=D6
hivel=127
lokey=f5
loop_end=260808
loop_mode=loop_continuous
loop_start=84780
loop_xfade=21329
lovel=1
pitch_keycenter=F#5
sample=Cor_nonvib_FF_F#5.opus
</region>

<region>
hikey=g#3
hivel=127
lokey=g3
loop_end=266334
loop_mode=loop_continuous
loop_start=86576
loop_xfade=21781
lovel=1
pitch_keycenter=g#3
sample=Cor_nonvib_FF_G#3.opus
</region>

<region>
hikey=g#4
hivel=127
lokey=g4
loop_end=255299
loop_mode=loop_continuous
loop_start=82989
loop_xfade=20879
lovel=1
pitch_keycenter=g#4
sample=Cor_nonvib_FF_G#4.opus
</region>
</group>